<mxfile host="app.diagrams.net" modified="2022-12-27T16:15:00.978Z" agent="5.0 (Windows NT 10.0; Win64; x64) AppleWebKit/537.36 (KHTML, like Gecko) Chrome/108.0.0.0 Safari/537.36 Edg/108.0.1462.54" etag="ujbNpxqL35J39j28vU5i" version="20.5.2" type="github">
  <diagram id="yFhTgLjL-dq6zD-HdHkg" name="Page-1">
    <mxGraphModel dx="1422" dy="762" grid="1" gridSize="10" guides="1" tooltips="1" connect="1" arrows="1" fold="1" page="1" pageScale="1" pageWidth="850" pageHeight="1100" math="0" shadow="0">
      <root>
        <mxCell id="0" />
        <mxCell id="1" parent="0" />
        <mxCell id="lGEIJaAXRUyNCMLdhOS5-20" style="edgeStyle=orthogonalEdgeStyle;rounded=0;orthogonalLoop=1;jettySize=auto;html=1;exitX=0.5;exitY=1;exitDx=0;exitDy=0;entryX=0.5;entryY=0;entryDx=0;entryDy=0;" edge="1" parent="1" source="lGEIJaAXRUyNCMLdhOS5-3" target="lGEIJaAXRUyNCMLdhOS5-15">
          <mxGeometry relative="1" as="geometry" />
        </mxCell>
        <mxCell id="lGEIJaAXRUyNCMLdhOS5-3" value="" style="rounded=0;whiteSpace=wrap;html=1;fillColor=#ffe6cc;strokeColor=#d79b00;" vertex="1" parent="1">
          <mxGeometry x="320" y="80" width="200" height="130" as="geometry" />
        </mxCell>
        <mxCell id="lGEIJaAXRUyNCMLdhOS5-18" style="edgeStyle=orthogonalEdgeStyle;rounded=0;orthogonalLoop=1;jettySize=auto;html=1;exitX=0.5;exitY=1;exitDx=0;exitDy=0;entryX=0.5;entryY=0;entryDx=0;entryDy=0;" edge="1" parent="1" source="lGEIJaAXRUyNCMLdhOS5-3" target="lGEIJaAXRUyNCMLdhOS5-12">
          <mxGeometry relative="1" as="geometry" />
        </mxCell>
        <mxCell id="lGEIJaAXRUyNCMLdhOS5-4" value="Name node" style="rounded=0;whiteSpace=wrap;html=1;" vertex="1" parent="1">
          <mxGeometry x="350" y="90" width="140" height="60" as="geometry" />
        </mxCell>
        <mxCell id="lGEIJaAXRUyNCMLdhOS5-5" value="Resource manager" style="rounded=0;whiteSpace=wrap;html=1;" vertex="1" parent="1">
          <mxGeometry x="350" y="160" width="140" height="40" as="geometry" />
        </mxCell>
        <mxCell id="lGEIJaAXRUyNCMLdhOS5-12" value="" style="rounded=0;whiteSpace=wrap;html=1;fillColor=#f8cecc;strokeColor=#b85450;" vertex="1" parent="1">
          <mxGeometry x="80" y="280" width="200" height="130" as="geometry" />
        </mxCell>
        <mxCell id="lGEIJaAXRUyNCMLdhOS5-13" value="Data node 1" style="rounded=0;whiteSpace=wrap;html=1;" vertex="1" parent="1">
          <mxGeometry x="110" y="290" width="140" height="60" as="geometry" />
        </mxCell>
        <mxCell id="lGEIJaAXRUyNCMLdhOS5-14" value="Node manager 1" style="rounded=0;whiteSpace=wrap;html=1;" vertex="1" parent="1">
          <mxGeometry x="110" y="360" width="140" height="40" as="geometry" />
        </mxCell>
        <mxCell id="lGEIJaAXRUyNCMLdhOS5-15" value="" style="rounded=0;whiteSpace=wrap;html=1;fillColor=#f8cecc;strokeColor=#b85450;" vertex="1" parent="1">
          <mxGeometry x="560" y="280" width="200" height="130" as="geometry" />
        </mxCell>
        <mxCell id="lGEIJaAXRUyNCMLdhOS5-16" value="Data node 2" style="rounded=0;whiteSpace=wrap;html=1;" vertex="1" parent="1">
          <mxGeometry x="590" y="290" width="140" height="60" as="geometry" />
        </mxCell>
        <mxCell id="lGEIJaAXRUyNCMLdhOS5-17" value="Node manager 2" style="rounded=0;whiteSpace=wrap;html=1;" vertex="1" parent="1">
          <mxGeometry x="590" y="360" width="140" height="40" as="geometry" />
        </mxCell>
      </root>
    </mxGraphModel>
  </diagram>
</mxfile>
